<svg width="30" height="30" viewBox="0 0 30 30" fill="none" xmlns="http://www.w3.org/2000/svg">
<path d="M0.329779 14.1374C0.44222 14.0119 2.13218 12.1523 4.70897 10.7374C3.88736 7.9149 4.0073 5.40481 4.01662 5.23665C4.05301 4.57853 4.57854 4.05301 5.2366 4.01668C5.25617 4.01557 5.43617 4.00613 5.73846 4.00613C6.58496 4.00613 8.56467 4.08605 10.7333 4.7164C12.1487 2.13554 14.0119 0.442307 14.1375 0.329808C14.6284 -0.109936 15.3716 -0.109936 15.8627 0.329808C15.9883 0.442307 17.8515 2.13548 19.2668 4.7164C21.4354 4.08605 23.4152 4.00613 24.2616 4.00613C24.564 4.00613 24.744 4.01551 24.7635 4.01668C25.4217 4.05295 25.9471 4.57853 25.9834 5.23665C25.9927 5.40481 26.1127 7.9149 25.291 10.7374C27.8678 12.1523 29.5579 14.0119 29.6702 14.1374C30.1099 14.6285 30.1099 15.3717 29.6702 15.8627C29.5579 15.9882 27.8678 17.8478 25.291 19.2627C26.1127 22.0852 25.9927 24.5953 25.9834 24.7634C25.9471 25.4215 25.4215 25.9471 24.7634 25.9834C24.7438 25.9845 24.5638 25.9939 24.2616 25.9939C23.415 25.9939 21.4352 25.914 19.2667 25.2837C17.8513 27.8646 15.9882 29.5578 15.8627 29.6703C15.6171 29.8901 15.3086 30 15 30C14.6915 30 14.3829 29.8901 14.1374 29.6703C14.0118 29.5578 12.1486 27.8646 10.7332 25.2837C8.56473 25.914 6.58491 25.9939 5.7384 25.9939C5.73834 25.9939 5.73823 25.9939 5.73817 25.9939C5.43582 25.9939 5.256 25.9846 5.23649 25.9834C4.57836 25.9471 4.05301 25.4215 4.01662 24.7634C4.00742 24.5952 3.88736 22.0852 4.70897 19.2627C2.13213 17.8478 0.442162 15.9882 0.329779 15.8627C-0.109968 15.3717 -0.109968 14.6285 0.329779 14.1374ZM6.62241 6.62022C6.6711 7.41662 6.79649 8.51788 7.10458 9.68934C7.77606 9.47043 8.48141 9.30356 9.21343 9.21344C9.30378 8.47997 9.471 7.77339 9.6905 7.1008C8.51938 6.79248 7.41893 6.66797 6.62241 6.62022ZM15 3.1526C14.4707 3.75108 13.78 4.61955 13.1694 5.6669C13.8006 5.9863 14.4186 6.36522 15 6.81785C15.5814 6.36516 16.1994 5.9863 16.8306 5.6669C16.2199 4.61931 15.5292 3.7509 15 3.1526ZM20.3096 7.10074C20.5291 7.77345 20.6965 8.48003 20.7867 9.21339C21.5188 9.30356 22.224 9.47038 22.8956 9.68928C23.2036 8.51771 23.3289 7.41638 23.3777 6.62022C22.5813 6.66797 21.4807 6.79248 20.3096 7.10074ZM24.3383 16.8277C25.3836 16.2176 26.2503 15.5283 26.8477 15.0001C26.2501 14.4717 25.3835 13.7824 24.3383 13.1724C24.0182 13.802 23.6375 14.4188 23.1835 15.0001C23.6374 15.5814 24.0182 16.1981 24.3383 16.8277ZM23.3776 23.3798C23.3289 22.5834 23.2035 21.4821 22.8955 20.3107C22.2239 20.5296 21.5187 20.6965 20.7866 20.7866C20.6964 21.52 20.5291 22.2266 20.3096 22.8992C21.4807 23.2076 22.5811 23.332 23.3776 23.3798ZM15 26.8474C15.5294 26.2489 16.22 25.3805 16.8306 24.3332C16.1995 24.0138 15.5815 23.6349 15 23.1822C14.4186 23.6349 13.8006 24.0138 13.1694 24.3332C13.7801 25.3806 14.4707 26.2489 15 26.8474ZM11.7242 19.5689C11.7242 20.4018 11.8726 21.211 12.1117 21.9765C12.8204 21.604 13.4963 21.1364 14.0857 20.547C14.3282 20.3045 14.6571 20.1682 15 20.1682C15.343 20.1682 15.6719 20.3045 15.9145 20.547C16.5037 21.1364 17.1798 21.6041 17.8884 21.9765C18.1275 21.211 18.2758 20.4018 18.2758 19.5689C18.2758 18.8548 18.8548 18.2758 19.569 18.2758C20.4012 18.2758 21.2098 18.1278 21.9747 17.889C21.6026 17.1792 21.1356 16.5028 20.5471 15.9144C20.3045 15.6719 20.1682 15.343 20.1682 15C20.1682 14.657 20.3045 14.3281 20.5471 14.0856C21.1355 13.4971 21.6025 12.8207 21.9746 12.1111C21.2097 11.8722 20.4012 11.7242 19.5689 11.7242C18.8548 11.7242 18.2758 11.1453 18.2758 10.4311C18.2758 9.59823 18.1275 8.78905 17.8884 8.02353C17.1796 8.39607 16.5037 8.8637 15.9144 9.45303C15.6719 9.69555 15.343 9.83184 15 9.83184C14.657 9.83184 14.3281 9.69555 14.0856 9.45303C13.4963 8.8637 12.8203 8.39601 12.1116 8.02353C11.8725 8.78905 11.7242 9.59828 11.7242 10.4312C11.7242 11.1453 11.1452 11.7243 10.431 11.7243C9.5988 11.7243 8.79032 11.8724 8.02532 12.1112C8.39739 12.8209 8.86438 13.4973 9.4529 14.0857C9.69548 14.3282 9.83171 14.6571 9.83171 15.0001C9.83171 15.3431 9.69559 15.672 9.45302 15.9145C8.86456 16.5029 8.39757 17.1793 8.02544 17.889C8.79038 18.1278 9.59891 18.2758 10.4311 18.2758C11.1453 18.2758 11.7242 18.8548 11.7242 19.5689ZM9.69056 22.8992C9.47106 22.2266 9.30384 21.52 9.21348 20.7866C8.48141 20.6965 7.77612 20.5296 7.10452 20.3107C6.79649 21.4824 6.67116 22.5838 6.62235 23.3798C7.41881 23.332 8.51938 23.2075 9.69056 22.8992ZM5.66188 16.8277C5.98198 16.1981 6.36266 15.5815 6.81665 15.0001C6.36266 14.4186 5.98198 13.8019 5.66188 13.1724C4.6165 13.7824 3.74984 14.4718 3.15248 15.0001C3.75008 15.5285 4.61662 16.2177 5.66188 16.8277Z" fill="#2F40E9"/>
<path d="M14.0858 14.0856C14.3271 13.8451 14.6599 13.7072 15.0004 13.7072C15.341 13.7072 15.6746 13.8451 15.9151 14.0856C16.1556 14.3261 16.2936 14.6598 16.2936 15.0003C16.2936 15.3409 16.1556 15.6736 15.9151 15.915C15.6746 16.1555 15.341 16.2935 15.0004 16.2935C14.6599 16.2935 14.3271 16.1555 14.0858 15.915C13.8453 15.6736 13.7072 15.3409 13.7072 15.0003C13.7072 14.6598 13.8453 14.327 14.0858 14.0856Z" fill="#274BE9"/>
</svg>
