<svg width="183" height="140" viewBox="0 0 183 140" fill="none" xmlns="http://www.w3.org/2000/svg">
<path d="M35.6454 136.96C45.6054 136.96 52.0254 132.16 52.0254 123.52C52.0254 114.76 45.4854 112.24 38.8854 110.32C34.0854 108.94 32.0454 108.28 32.0454 106.42C32.0454 105.22 33.0054 104.2 35.2254 104.2C37.4454 104.2 39.7254 105.46 40.9854 108.64L50.9454 102.82C48.2454 96.34 42.1254 93.04 35.1654 93.04C25.9854 93.04 20.0454 98.8 20.0454 106.36C20.0454 114.04 25.6254 117.76 32.5854 119.86C36.8454 121.12 40.0254 121.48 40.0254 123.64C40.0254 124.9 38.8254 125.8 35.9454 125.8C32.4054 125.8 29.8854 124.24 28.3854 120.46L18.1254 126.4C20.1654 132.7 26.2854 136.96 35.6454 136.96ZM73.9441 116.56V106H67.6441V97.6L56.5441 100.9V106H52.3441V116.56H56.5441V123.64C56.5441 133.84 61.1641 137.8 73.9441 136V126.04C69.8641 126.28 67.6441 126.16 67.6441 123.04V116.56H73.9441ZM83.4546 103.72C86.7546 103.72 89.5746 100.9 89.5746 97.6C89.5746 94.3 86.7546 91.48 83.4546 91.48C80.0946 91.48 77.2746 94.3 77.2746 97.6C77.2746 100.9 80.0946 103.72 83.4546 103.72ZM77.8746 136H88.9746V106H77.8746V136ZM113.554 116.56V106H107.254V97.6L96.1535 100.9V106H91.9535V116.56H96.1535V123.64C96.1535 133.84 100.774 137.8 113.554 136V126.04C109.474 126.28 107.254 126.16 107.254 123.04V116.56H113.554ZM136.624 105.16C133.144 105.16 130.384 106.48 128.584 108.94V94H117.484V136H128.584V120.58C128.584 117.64 129.964 115.84 132.664 115.84C134.944 115.84 136.384 117.16 136.384 119.86V136H147.484V118.66C147.484 109.36 142.864 105.16 136.624 105.16ZM157.576 103.72C160.876 103.72 163.696 100.9 163.696 97.6C163.696 94.3 160.876 91.48 157.576 91.48C154.216 91.48 151.396 94.3 151.396 97.6C151.396 100.9 154.216 103.72 157.576 103.72ZM151.996 136H163.096V106H151.996V136Z" fill="#F46972"/>
<rect x="50.1555" width="82.6889" height="82.6889" rx="41.3444" fill="url(#paint0_linear)"/>
<path d="M64.9097 39.7804C65.1135 39.5529 68.1765 36.1823 72.8469 33.6178C71.3578 28.502 71.5752 23.9525 71.5921 23.6477C71.658 22.4548 72.6105 21.5023 73.8033 21.4365C73.8388 21.4345 74.165 21.4174 74.7129 21.4174C76.2472 21.4174 79.8354 21.5622 83.766 22.7047C86.3314 18.0269 89.7084 14.9579 89.9361 14.754C90.8259 13.957 92.173 13.957 93.063 14.754C93.2907 14.9579 96.6677 18.0268 99.2329 22.7047C103.163 21.5622 106.752 21.4174 108.286 21.4174C108.834 21.4174 109.16 21.4344 109.196 21.4365C110.389 21.5022 111.341 22.4548 111.407 23.6477C111.424 23.9525 111.641 28.502 110.152 33.6178C114.822 36.1823 117.885 39.5529 118.089 39.7804C118.886 40.6704 118.886 42.0175 118.089 42.9074C117.885 43.1349 114.822 46.5055 110.152 49.07C111.641 54.1858 111.424 58.7353 111.407 59.0401C111.341 60.233 110.388 61.1855 109.195 61.2513C109.16 61.2533 108.834 61.2704 108.286 61.2704C106.752 61.2704 103.163 61.1256 99.2328 59.9831C96.6674 64.661 93.2904 67.7299 93.0629 67.9338C92.6179 68.3323 92.0587 68.5315 91.4994 68.5315C90.9402 68.5315 90.3809 68.3323 89.9359 67.9338C89.7083 67.7299 86.3313 64.661 83.7659 59.9831C79.8355 61.1256 76.2471 61.2704 74.7128 61.2704C74.7127 61.2704 74.7125 61.2704 74.7124 61.2704C74.1644 61.2704 73.8384 61.2534 73.8031 61.2513C72.6102 61.1856 71.658 60.233 71.5921 59.0401C71.5754 58.7352 71.3578 54.1859 72.8469 49.07C68.1764 46.5055 65.1134 43.1349 64.9097 42.9074C64.1127 42.0175 64.1127 40.6704 64.9097 39.7804ZM76.315 26.1554C76.4033 27.5989 76.6306 29.5949 77.189 31.7182C78.406 31.3214 79.6845 31.019 81.0112 30.8557C81.175 29.5262 81.4781 28.2456 81.8759 27.0265C79.7533 26.4676 77.7587 26.242 76.315 26.1554ZM91.4994 19.8703C90.54 20.9551 89.2881 22.5292 88.1814 24.4275C89.3254 25.0064 90.4455 25.6932 91.4993 26.5136C92.5532 25.6931 93.6733 25.0064 94.8173 24.4275C93.7104 22.5288 92.4585 20.9548 91.4994 19.8703ZM101.123 27.0264C101.521 28.2457 101.824 29.5263 101.988 30.8555C103.315 31.019 104.593 31.3213 105.81 31.7181C106.368 29.5946 106.595 27.5985 106.684 26.1554C105.24 26.242 103.246 26.4676 101.123 27.0264ZM108.425 44.6565C110.32 43.5508 111.89 42.3014 112.973 41.3441C111.89 40.3862 110.319 39.137 108.425 38.0313C107.845 39.1725 107.155 40.2903 106.332 41.344C107.155 42.3977 107.845 43.5153 108.425 44.6565ZM106.684 56.5323C106.595 55.0888 106.368 53.0927 105.81 50.9695C104.593 51.3662 103.315 51.6687 101.988 51.832C101.824 53.1615 101.521 54.4421 101.123 55.6612C103.246 56.2202 105.24 56.4457 106.684 56.5323ZM91.4994 62.8174C92.4589 61.7325 93.7106 60.1585 94.8174 58.2604C93.6735 57.6815 92.5533 56.9947 91.4994 56.1742C90.4456 56.9947 89.3255 57.6814 88.1815 58.2604C89.2882 60.1587 90.54 61.7325 91.4994 62.8174ZM85.5621 49.6251C85.5621 51.1346 85.831 52.6012 86.2643 53.9888C87.5489 53.3135 88.774 52.4661 89.8422 51.3979C90.2817 50.9583 90.8778 50.7113 91.4994 50.7113C92.121 50.7113 92.7172 50.9583 93.1568 51.3979C94.2248 52.4661 95.4502 53.3138 96.7346 53.9888C97.168 52.6012 97.4368 51.1346 97.4368 49.6251C97.4368 48.3307 98.4862 47.2812 99.7807 47.2812C101.289 47.2812 102.755 47.013 104.141 46.5801C103.467 45.2937 102.62 44.0677 101.553 43.0012C101.114 42.5617 100.867 41.9655 100.867 41.3438C100.867 40.7221 101.114 40.126 101.553 39.6865C102.62 38.6199 103.466 37.3939 104.141 36.1076C102.754 35.6747 101.289 35.4065 99.7806 35.4065C98.4862 35.4065 97.4367 34.3571 97.4367 33.0626C97.4367 31.5531 97.1679 30.0864 96.7345 28.6989C95.4499 29.3741 94.2248 30.2217 93.1567 31.2899C92.7171 31.7295 92.121 31.9765 91.4993 31.9765C90.8776 31.9765 90.2815 31.7295 89.8421 31.2899C88.7739 30.2217 87.5488 29.374 86.2642 28.6989C85.8307 30.0864 85.562 31.5532 85.562 33.0628C85.562 34.3572 84.5126 35.4067 83.2181 35.4067C81.7097 35.4067 80.2444 35.6749 78.8578 36.1078C79.5322 37.3942 80.3786 38.6202 81.4453 39.6867C81.885 40.1263 82.1319 40.7224 82.1319 41.3441C82.1319 41.9658 81.8852 42.5618 81.4455 43.0013C80.3789 44.0679 79.5325 45.2938 78.858 46.5802C80.2445 47.0131 81.7099 47.2813 83.2183 47.2813C84.5127 47.2812 85.5621 48.3306 85.5621 49.6251ZM81.876 55.6612C81.4782 54.4421 81.1751 53.1615 81.0114 51.8321C79.6845 51.6688 78.4061 51.3663 77.1889 50.9696C76.6306 53.0933 76.4034 55.0894 76.3149 56.5323C77.7585 56.4457 79.7533 56.2199 81.876 55.6612ZM74.5741 44.6566C75.1543 43.5154 75.8442 42.3978 76.6671 41.344C75.8442 40.2901 75.1543 39.1724 74.5741 38.0313C72.6794 39.137 71.1085 40.3864 70.0258 41.344C71.109 42.3017 72.6796 43.5509 74.5741 44.6566Z" fill="url(#paint1_linear)"/>
<path d="M89.8424 39.6865C90.2798 39.2505 90.8829 39.0005 91.5001 39.0005C92.1174 39.0005 92.7221 39.2505 93.158 39.6865C93.594 40.1224 93.844 40.7271 93.844 41.3444C93.844 41.9616 93.594 42.5647 93.158 43.0023C92.7221 43.4382 92.1174 43.6882 91.5001 43.6882C90.8829 43.6882 90.2798 43.4382 89.8424 43.0023C89.4065 42.5647 89.1563 41.9616 89.1563 41.3444C89.1563 40.7271 89.4065 40.124 89.8424 39.6865Z" fill="#FF8A92"/>
<defs>
<linearGradient id="paint0_linear" x1="91.5" y1="0" x2="91.5" y2="82.6889" gradientUnits="userSpaceOnUse">
<stop stop-color="#274BE9"/>
<stop offset="1" stop-color="#4227E9"/>
</linearGradient>
<linearGradient id="paint1_linear" x1="91.4993" y1="14.1562" x2="91.4993" y2="68.5315" gradientUnits="userSpaceOnUse">
<stop stop-color="#FF8A92"/>
<stop offset="1" stop-color="#FF949B"/>
</linearGradient>
</defs>
</svg>
