<svg width="70" height="77" viewBox="0 0 70 77" fill="none" xmlns="http://www.w3.org/2000/svg">
<path d="M60.4 9.30005H9.3C5.26832 9.30005 2 12.5684 2 16.6V67.7C2 71.7317 5.26832 75 9.3 75H60.4C64.4317 75 67.7 71.7317 67.7 67.7V16.6C67.7 12.5684 64.4317 9.30005 60.4 9.30005Z" fill="url(#paint0_linear)" stroke="black" stroke-width="3" stroke-linecap="round" stroke-linejoin="round"/>
<path d="M2.88489 17.406C2.88489 13.54 6.01889 10.406 9.88489 10.406H59.0364C63.4547 10.406 67.0364 13.9877 67.0364 18.406V30.3151H2.88489V17.406Z" fill="#C0CEFF"/>
<path d="M49.4502 2V16.6" stroke="black" stroke-width="3" stroke-linecap="round" stroke-linejoin="round"/>
<path d="M20.2499 2V16.6" stroke="black" stroke-width="3" stroke-linecap="round" stroke-linejoin="round"/>
<path d="M2 31.2H67.7" stroke="black" stroke-width="3" stroke-linecap="round" stroke-linejoin="round"/>
<path d="M66.3728 31.6425C66.3728 31.6425 45.8391 27.8522 38.5001 52.6576C31.161 77.463 7.53038 74.7788 7.53038 74.7788" stroke="black" stroke-width="3"/>
<defs>
<linearGradient id="paint0_linear" x1="34.85" y1="9.30005" x2="34.85" y2="75" gradientUnits="userSpaceOnUse">
<stop stop-color="#E8DDFF"/>
<stop offset="1" stop-color="white"/>
</linearGradient>
</defs>
</svg>
