<svg width="26" height="26" viewBox="0 0 26 26" fill="none" xmlns="http://www.w3.org/2000/svg">
<path d="M24.7924 23.7761L18.9588 17.9437C20.5236 16.145 21.4711 13.7982 21.4711 11.2333C21.4711 5.58714 16.8776 1 11.2355 1C5.58816 1 1 5.59246 1 11.2333C1 16.8741 5.59348 21.4665 11.2355 21.4665C13.8011 21.4665 16.1484 20.5193 17.9474 18.9548L23.7811 24.7871C23.9195 24.9255 24.1058 25 24.2868 25C24.4677 25 24.654 24.9308 24.7924 24.7871C25.0692 24.5104 25.0692 24.0528 24.7924 23.7761ZM2.4318 11.2333C2.4318 6.38004 6.38124 2.43681 11.2302 2.43681C16.0845 2.43681 20.0286 6.38537 20.0286 11.2333C20.0286 16.0812 16.0845 20.035 11.2302 20.035C6.38124 20.035 2.4318 16.0865 2.4318 11.2333Z" fill="#343AE9" stroke="#2E42E9" stroke-width="1.25"/>
</svg>
