<svg width="38" height="42" viewBox="0 0 38 42" fill="none" xmlns="http://www.w3.org/2000/svg">
<path d="M1 10.5C1 7.73858 3.23858 5.5 6 5.5H32C34.7614 5.5 37 7.73858 37 10.5V16.3H1V10.5Z" fill="#C0CEFF"/>
<path d="M33 5H5C2.79086 5 1 6.79086 1 9V37C1 39.2091 2.79086 41 5 41H33C35.2091 41 37 39.2091 37 37V9C37 6.79086 35.2091 5 33 5Z" stroke="black" stroke-width="2" stroke-linecap="round" stroke-linejoin="round"/>
<path d="M27 1V9" stroke="black" stroke-width="2" stroke-linecap="round" stroke-linejoin="round"/>
<path d="M11 1V9" stroke="black" stroke-width="2" stroke-linecap="round" stroke-linejoin="round"/>
<path d="M1 17H37" stroke="black" stroke-width="2" stroke-linecap="round" stroke-linejoin="round"/>
<path d="M36.2725 17.2424C36.2725 17.2424 25.0211 15.1656 20.9997 28.7576C16.9783 42.3496 4.03004 40.8788 4.03004 40.8788" stroke="black" stroke-width="2"/>
</svg>
